<?xml version="1.0" encoding="iso-8859-1"?>
<!-- Generator: Adobe Illustrator 19.0.0, SVG Export Plug-In . SVG Version: 6.00 Build 0)  -->
<svg version="1.1" id="Layer_1" xmlns="http://www.w3.org/2000/svg" xmlns:xlink="http://www.w3.org/1999/xlink" x="0px" y="0px"
	 viewBox="0 0 512 512" style="enable-background:new 0 0 512 512;" xml:space="preserve">
<g>
	<g>
		<g>
			<path d="M375.675,388.265c-6.399,0-10.667,2.133-10.667,8.533l-2.133,4.267c-4.267,12.801-14.934,23.467-27.733,23.467h-2.133
				c-8.533,0-17.067-4.267-23.467-10.667c-2.133-2.133-4.267-4.267-8.533-4.267s-6.399,2.133-8.533,4.267
				c-6.399,8.533-17.067,10.667-25.6,10.667c-12.801-2.133-25.6-10.667-27.733-23.467l-2.133-4.267
				c-2.133-8.533-19.2-8.533-21.333,0l-2.133,4.267c-4.267,12.801-14.934,23.467-27.733,23.467h-2.133
				c-8.533,0-17.067-4.267-23.467-10.667c-2.133-2.133-4.267-4.267-8.533-4.267c-4.266,0-6.399,2.133-8.533,4.267
				c-6.399,8.533-17.067,10.667-25.6,10.667c-12.801-2.133-25.6-10.667-27.733-23.467l-21.333-85.333
				c-4.267-17.067,6.399-34.134,23.467-38.4c12.801-2.133,25.6,2.133,31.999,10.667c4.267,4.267,8.533,4.267,12.801,2.133
				c8.533-4.267,21.333-4.267,29.866,0c4.267,2.133,10.666,2.133,12.801-2.133c8.533-8.533,21.333-12.801,31.999-10.667
				c2.133,0,4.267,2.133,8.533,4.267c4.267,2.133,6.399,2.133,10.666,0c2.133-2.133,6.399-2.133,8.533-4.267
				c12.801-2.133,25.6,2.133,31.999,10.667c4.267,4.267,8.533,4.267,12.8,2.133c8.533-4.267,21.333-4.267,29.866,0
				c4.267,2.133,10.666,2.133,12.8-2.133c8.533-8.533,21.333-12.801,31.999-10.667c2.133,0,4.267,2.133,8.533,4.267
				c4.267,2.133,6.399,2.133,10.667,0c4.267-2.133,6.399-6.399,6.399-8.533v-262.4C384.206,4.267,379.939,0,373.54,0H138.876
				c0,0,0,0-2.133,0c0,0,0,0-2.133,0c-2.133,0-4.267,2.133-4.267,2.133l-128.001,128c-2.133,2.133-2.133,2.133-2.133,4.267
				c0,0,0,0,0,2.133c0,0,0,0,0,2.133v362.667c0,6.399,4.267,10.667,10.667,10.667h362.666c6.399,0,10.667-4.267,10.667-10.667
				V398.932C384.208,394.664,379.941,390.398,375.675,388.265z M128.208,36.266v91.733H36.476L128.208,36.266z"/>
			<path d="M205.009,298.665c-6.399-2.133-10.667,2.133-12.801,8.533l-12.801,55.467l-19.2-44.8c-4.267-8.533-17.067-8.533-19.2,0
				l-19.2,44.8l-12.801-55.467c-2.133-6.399-6.399-8.533-12.801-8.533c-6.399,2.133-8.533,6.399-8.533,12.801l21.333,85.333
				c2.133,4.267,4.267,8.533,8.533,8.533c4.267,0,8.533-2.133,10.667-6.399l21.333-51.199l21.333,51.199
				c2.133,4.267,6.399,6.399,10.667,6.399c4.267,0,8.533-4.267,8.533-8.533l21.333-85.333
				C215.675,305.065,211.408,300.798,205.009,298.665z"/>
			<path d="M503.675,298.665c-6.399-2.133-10.667,2.133-12.8,8.533l-12.801,55.467l-19.2-44.8c-4.267-8.533-17.067-8.533-19.2,0
				l-19.2,44.8l-12.801-55.467c-2.133-6.399-6.399-8.533-12.8-8.533c-6.399,2.133-8.533,6.399-8.533,12.801l21.333,85.333
				c2.133,4.267,4.267,8.533,8.533,8.533c4.267,0,8.533-2.133,10.667-6.399l21.333-51.199l21.333,51.199
				c2.133,4.267,6.399,6.399,10.667,6.399c4.267,0,8.533-4.267,8.533-8.533l21.333-85.333
				C514.341,305.065,510.075,300.798,503.675,298.665z"/>
			<path d="M341.542,307.198l-12.801,55.467l-19.2-44.8c-4.267-8.533-17.067-8.533-19.2,0l-19.2,44.8l-12.801-55.467
				c-2.133-6.399-6.399-8.533-12.801-8.533c-6.399,2.133-8.533,6.399-8.533,12.801l21.333,85.333
				c2.133,4.267,4.267,8.533,8.533,8.533c4.267,0,8.533-2.133,10.667-6.399l21.333-51.199l21.333,51.199
				c2.133,4.267,6.399,6.399,10.667,6.399s8.533-4.267,8.533-8.533l21.333-85.333c4.269-6.4,0.002-10.667-6.397-12.801
				C347.943,296.532,343.675,300.798,341.542,307.198z"/>
		</g>
	</g>
</g>
<g>
</g>
<g>
</g>
<g>
</g>
<g>
</g>
<g>
</g>
<g>
</g>
<g>
</g>
<g>
</g>
<g>
</g>
<g>
</g>
<g>
</g>
<g>
</g>
<g>
</g>
<g>
</g>
<g>
</g>
</svg>
